<svg xmlns="http://www.w3.org/2000/svg" width="27" height="25" viewBox="0 0 27 25" fill="none">
<g clip-path="url(#clip0_6092_7031)">
<path d="M13.5066 11.2412L18.963 22.8105C19.2767 23.4756 19.946 23.9 20.6815 23.9H23.4103C24.8096 23.9 25.7288 22.4387 25.123 21.1773L17.4376 5.17735C17.1213 4.51884 16.4555 4.1 15.725 4.1H11.275C10.5445 4.1 9.87866 4.51884 9.56236 5.17735L1.87704 21.1773C1.27118 22.4387 2.19042 23.9 3.58971 23.9H6.39913C7.13782 23.9 7.80955 23.4719 8.12145 22.8023L13.5066 11.2412Z" stroke="#ffffff" stroke-width="1.8" fill="#ffffff"/>
<path d="M13.5066 11.2412L18.963 22.8105C19.2767 23.4756 19.946 23.9 20.6815 23.9H23.4103C24.8096 23.9 25.7288 22.4387 25.123 21.1773L17.4376 5.17735C17.1213 4.51884 16.4555 4.1 15.725 4.1H11.275C10.5445 4.1 9.87866 4.51884 9.56236 5.17735L1.87704 21.1773C1.27118 22.4387 2.19042 23.9 3.58971 23.9H6.39913C7.13782 23.9 7.80955 23.4719 8.12145 22.8023L13.5066 11.2412Z" stroke="black" stroke-opacity="0.2" stroke-width="1.8" fill="#ffffff"/>
<path d="M18.8785 2.19774L13.4934 13.7588L8.03701 2.18953C7.72332 1.52439 7.05395 1.1 6.31855 1.1L3.58971 1.1C2.19042 1.1 1.27118 2.56132 1.87704 3.82265L9.56236 19.8227C9.87866 20.4812 10.5445 20.9 11.275 20.9L15.725 20.9C16.4555 20.9 17.1213 20.4812 17.4376 19.8227L25.123 3.82265C25.7288 2.56133 24.8096 1.1 23.4103 1.1L20.6009 1.1C19.8622 1.1 19.1905 1.52814 18.8785 2.19774Z" stroke="#ffffff" stroke-width="1.8" fill="#ffffff"/>
<path d="M18.8785 2.19774L13.4934 13.7588L8.03701 2.18953C7.72332 1.52439 7.05395 1.1 6.31855 1.1L3.58971 1.1C2.19042 1.1 1.27118 2.56132 1.87704 3.82265L9.56236 19.8227C9.87866 20.4812 10.5445 20.9 11.275 20.9L15.725 20.9C16.4555 20.9 17.1213 20.4812 17.4376 19.8227L25.123 3.82265C25.7288 2.56133 24.8096 1.1 23.4103 1.1L20.6009 1.1C19.8622 1.1 19.1905 1.52814 18.8785 2.19774Z" stroke="black" stroke-opacity="0.2" stroke-width="1.8" fill="#ffffff"/>
</g>
<defs fill="#ffffff">
<clipPath id="clip0_6092_7031" fill="#ffffff">
<rect width="27" height="25" fill="#ffffff"/>
</clipPath>
</defs>
</svg>